# xmcd
# Track frame offsets:
# 150
# 11626
# 25425
# 36968
# 47731
# 62854
# 76015
# 89588
# 102530
# 117411
# 132925
# 146188
# 158519
# 175084
# 190958
# 203387
# 218190
# 227674
# 242897
#
# Disc length: 3365 seconds
# Revision: 0
# Processed by: cddbd v1.5.1PL0 Copyright (c) Steve Scherf et al.
# Submitted via: VisiTrax 2.9.7.197 - For more info visit www.synapsa.com
#
DISCID=0a0d2313
DTITLE=Waters, Muddy - Hard Day Blues
DYEAR=1900
DGENRE=
TTITLE0=Little Anna Mae
TTITLE1=I Be's Troubled
TTITLE2=Gypsy Woman
TTITLE3=Mean red Spider
TTITLE4=Pearlie May Blues
TTITLE5=Burr Clover Farm Blues
TTITLE6=Rosalie
TTITLE7=Jitterbug Blues
TTITLE8=I Be Bound To Write To You
TTITLE9=Joe Turner Blues
TTITLE10=Take A Walk With Me
TTITLE11=Burying Ground Blues
TTITLE12=You're Gonna Miss Me When I'm Gone
TTITLE13=Country Blues
TTITLE14=Hard Day Blues
TTITLE15=Ramblin' Kid Blues
TTITLE16=You Got To Take Sick And Die Some Of These Days
TTITLE17=32-20 Blues
TTITLE18=Why Don't You Live So God Can Use You
EXTD=
EXTT0=
EXTT1=
EXTT2=
EXTT3=
EXTT4=
EXTT5=
EXTT6=
EXTT7=
EXTT8=
EXTT9=
EXTT10=
EXTT11=
EXTT12=
EXTT13=
EXTT14=
EXTT15=
EXTT16=
EXTT17=
EXTT18=
PLAYORDER=
